<svg width="32" height="32" viewBox="0 0 32 32" fill="none" xmlns="http://www.w3.org/2000/svg">
<path d="M1 16C1 7.71573 7.71573 1 16 1C24.2843 1 31 7.71573 31 16C31 24.2843 24.2843 31 16 31C7.71573 31 1 24.2843 1 16Z" stroke="#5B459A" stroke-width="0.5"/>
<path d="M16.9995 10.5C16.9995 10.299 16.8791 10.1175 16.6939 10.0393C16.5086 9.96119 16.2946 10.0016 16.1506 10.1419L13.2239 12.9927H11.4995C10.6711 12.9927 9.99951 13.6643 9.99951 14.4927V17.4817C9.99951 18.3101 10.6711 18.9817 11.4995 18.9817H13.2227L16.1491 21.8567C16.2928 21.9978 16.5071 22.039 16.6929 21.9611C16.8786 21.8832 16.9995 21.7014 16.9995 21.5V10.5ZM18.1108 13.1887C18.2827 12.9726 18.5972 12.9368 18.8133 13.1087L18.8142 13.1094L18.8151 13.1102L18.8173 13.1119L18.8226 13.1163L18.8376 13.1288C18.8494 13.1388 18.8647 13.1522 18.883 13.169C18.9196 13.2026 18.9684 13.2499 19.0252 13.3112C19.1387 13.4336 19.2852 13.613 19.4302 13.8514C19.7217 14.331 20.0038 15.0444 20.0038 15.9986C20.0038 16.9527 19.7217 17.6669 19.4304 18.1471C19.2855 18.3859 19.1392 18.5657 19.0258 18.6884C18.9691 18.7498 18.9203 18.7973 18.8837 18.8309C18.8641 18.849 18.8439 18.8666 18.8235 18.8838L18.815 18.8907L18.8142 18.8914C18.8142 18.8914 18.3679 19.1337 18.1115 18.8129C17.9399 18.5983 17.9738 18.2858 18.1866 18.1128L18.1882 18.1115L18.1874 18.1122L18.1891 18.1108L18.1882 18.1115C18.1911 18.109 18.1974 18.1036 18.2065 18.0952C18.2247 18.0784 18.2542 18.05 18.2913 18.0098C18.3658 17.9292 18.4699 17.8025 18.5754 17.6285C18.785 17.283 19.0038 16.7461 19.0038 15.9986C19.0038 15.2511 18.785 14.7152 18.5757 14.3709C18.4702 14.1974 18.3662 14.0712 18.2919 13.9911C18.2548 13.951 18.2254 13.9228 18.2072 13.9061C18.1981 13.8978 18.1919 13.8924 18.189 13.89L18.19 13.8907C17.9743 13.7187 17.939 13.4047 18.1108 13.1887ZM19.8126 11.1089C19.5965 10.9369 19.282 10.9725 19.11 11.1886C18.938 11.4045 18.9742 11.7193 19.1899 11.8914L19.201 11.9006C19.2118 11.9097 19.2293 11.9248 19.2526 11.9458C19.2993 11.9878 19.3688 12.0532 19.4537 12.1413C19.6238 12.3179 19.8536 12.5841 20.084 12.9351C20.5445 13.6364 21.0028 14.6685 21.0028 16.004C21.0028 17.3395 20.5445 18.3694 20.0843 19.0685C19.854 19.4184 19.6243 19.6835 19.4544 19.8593C19.3696 19.947 19.3001 20.0121 19.2535 20.0538C19.2302 20.0747 19.2127 20.0897 19.2019 20.0988L19.1903 20.1083L19.1894 20.1091C18.9741 20.2808 18.9381 20.5945 19.1092 20.8105C19.2807 21.0269 19.5959 21.0628 19.8124 20.8913L19.8453 20.8642C19.8639 20.8487 19.8893 20.8268 19.9208 20.7986C19.9837 20.7423 20.0705 20.6607 20.1734 20.5543C20.3788 20.3418 20.6495 20.0286 20.9196 19.6183C21.4603 18.797 22.0028 17.5788 22.0028 16.004C22.0028 14.4293 21.4603 13.2094 20.9199 12.3863C20.6499 11.975 20.3793 11.6609 20.1741 11.4477C20.0713 11.341 19.9844 11.2591 19.9216 11.2025C19.8902 11.1743 19.8647 11.1523 19.8462 11.1367L19.8238 11.118L19.8167 11.1122L19.8143 11.1102L19.8126 11.1089ZM18.189 13.89L18.1876 13.8887Z" fill="#5B459A"/>
</svg>
