<svg width="32" height="32" viewBox="0 0 32 32" fill="none" xmlns="http://www.w3.org/2000/svg">
<path d="M1 16C1 7.71573 7.71573 1 16 1C24.2843 1 31 7.71573 31 16C31 24.2843 24.2843 31 16 31C7.71573 31 1 24.2843 1 16Z" stroke="#FFF" stroke-width="0.5"/>
<path d="M13 12C12.4477 12 12 12.4477 12 13V19C12 19.5523 12.4477 20 13 20H14C14.5523 20 15 19.5523 15 19V13C15 12.4477 14.5523 12 14 12H13ZM18 12C17.4477 12 17 12.4477 17 13V19C17 19.5523 17.4477 20 18 20H19C19.5523 20 20 19.5523 20 19V13C20 12.4477 19.5523 12 19 12H18Z" fill="#FFF"/>
</svg>
