        <svg width="4vh" height="4vh" viewBox="0 0 64 64" fill="none" xmlns="http://www.w3.org/2000/svg">
        <g filter="url(#filter0_bd_38_67)">
        <rect x="6" y="3" width="52" height="52" rx="26" fill="#D8D8D8"/>
        </g>
        <path d="M31.6279 40C28.3821 40 25.6323 38.8867 23.3787 36.6601C21.1262 34.4324 20 31.714 20 28.5049C20 25.2959 21.1262 22.5764 23.3787 20.3465C25.6323 18.1155 28.3821 17 31.6279 17C33.6024 17 35.4507 17.4638 37.1728 18.3915C38.8959 19.3192 40.2846 20.6143 41.3389 22.2769V17H43V25.5921H34.3123V23.9493H40.4585C39.5936 22.3119 38.3765 21.0179 36.8073 20.0672C35.2403 19.1176 33.5138 18.6429 31.6279 18.6429C28.8594 18.6429 26.5061 19.6012 24.5681 21.5179C22.6301 23.4345 21.6611 25.7619 21.6611 28.5C21.6611 31.2381 22.6301 33.5655 24.5681 35.4821C26.5061 37.3988 28.8594 38.3571 31.6279 38.3571C33.7597 38.3571 35.6838 37.7548 37.4003 36.55C39.1168 35.3452 40.3211 33.7571 41.0133 31.7857H42.7757C42.0437 34.2456 40.6523 36.2296 38.6013 37.7378C36.5504 39.2459 34.2259 40 31.6279 40Z" fill="black"/>
        <defs>
        <filter id="filter0_bd_38_67" x="0" y="-3" width="64" height="67" filterUnits="userSpaceOnUse" color-interpolation-filters="sRGB">
        <feFlood flood-opacity="0" result="BackgroundImageFix"/>
        <feGaussianBlur in="BackgroundImageFix" stdDeviation="3"/>
        <feComposite in2="SourceAlpha" operator="in" result="effect1_backgroundBlur_38_67"/>
        <feColorMatrix in="SourceAlpha" type="matrix" values="0 0 0 0 0 0 0 0 0 0 0 0 0 0 0 0 0 0 127 0" result="hardAlpha"/>
        <feOffset dy="3"/>
        <feGaussianBlur stdDeviation="3"/>
        <feComposite in2="hardAlpha" operator="out"/>
        <feColorMatrix type="matrix" values="0 0 0 0 0 0 0 0 0 0 0 0 0 0 0 0 0 0 0.15 0"/>
        <feBlend mode="normal" in2="effect1_backgroundBlur_38_67" result="effect2_dropShadow_38_67"/>
        <feBlend mode="normal" in="SourceGraphic" in2="effect2_dropShadow_38_67" result="shape"/>
        </filter>
        </defs>
        </svg>