<svg width="32" height="32" viewBox="0 0 32 32" fill="none" xmlns="http://www.w3.org/2000/svg">
<g clip-path="url(#clip0_89_25)">
<path d="M1 16C1 7.71573 7.71573 1 16 1C24.2843 1 31 7.71573 31 16C31 24.2843 24.2843 31 16 31C7.71573 31 1 24.2843 1 16Z" stroke="#5B459A" stroke-width="0.5"/>
<path d="M18.7901 21.7845C17.2625 22.6665 15.6626 22.8835 13.9904 22.4354C12.3182 21.9873 11.0412 20.9995 10.1592 19.4718C9.72083 18.7126 9.45408 17.9192 9.35889 17.0915C9.26371 16.2638 9.32079 15.4593 9.53015 14.678C9.7395 13.8966 10.0923 13.1714 10.5886 12.5022C11.0849 11.8329 11.7126 11.2792 12.4718 10.8408C13.231 10.4025 14.0268 10.1344 14.8591 10.0366C15.6914 9.93871 16.4946 9.99348 17.2686 10.2009C18.0426 10.4083 18.7616 10.7555 19.4254 11.2425C20.0893 11.7295 20.6351 12.3434 21.0627 13.0841L21.0787 13.1118C21.1442 12.9259 21.2603 12.7848 21.4269 12.6886C21.5936 12.5924 21.7791 12.5717 21.9836 12.6265C22.1881 12.6812 22.3424 12.7989 22.4466 12.9794C22.5509 13.16 22.5756 13.3525 22.5208 13.5569L22.0395 15.3532C21.9652 15.6307 21.8076 15.8389 21.5669 15.9779C21.3262 16.1169 21.0671 16.1492 20.7896 16.0749L18.9714 15.5877C18.7669 15.5329 18.6126 15.4152 18.5084 15.2347C18.4041 15.0542 18.3794 14.8617 18.4342 14.6572C18.489 14.4527 18.602 14.3011 18.7733 14.2022C18.9446 14.1033 19.1271 14.072 19.3209 14.1082L19.3128 14.0944C18.7248 13.0759 17.8583 12.425 16.7134 12.1417C15.5684 11.8584 14.4913 12.0081 13.4821 12.5907C12.4451 13.1894 11.7741 14.0583 11.4688 15.1974C11.1636 16.3365 11.3103 17.4246 11.909 18.4615C12.5077 19.4985 13.3766 20.1696 14.5157 20.4748C15.6548 20.78 16.7429 20.6333 17.7798 20.0346C18.1687 19.8101 18.5126 19.5344 18.8115 19.2075C19.1104 18.8807 19.3524 18.5033 19.5374 18.0755C19.6517 17.8244 19.8268 17.6306 20.0629 17.4943C20.299 17.358 20.5485 17.3251 20.8114 17.3955C21.0942 17.4791 21.3028 17.6426 21.4372 17.886C21.5715 18.1294 21.5915 18.3833 21.4972 18.6476C21.2442 19.2998 20.8941 19.8908 20.4469 20.4206C19.9998 20.9503 19.4475 21.405 18.7901 21.7845Z" fill="#5B459A"/>
</g>
<defs>
<clipPath id="clip0_89_25">
<rect width="32" height="32" fill="white"/>
</clipPath>
</defs>
</svg>
